# xmcd
#
# Track frame offsets:
#	150
#	11968
#	19695
#	31213
#	42917
#	58518
#	67292
#	79406
#	91951
#	104054
#	116601
#	129729
#	142434
#	155288
#	171149
#	182778
#	190235
#	202625
#
# Disc length: 2888
#
# Revision: 2
# Processed by: cddbd v1.5.1PL0 Copyright (c) Steve Scherf et al.
# Submitted via: CDex 1.50Beta7
# Normalized: r1:DSETVAR1,TDELIM( - ),TSWAP
#
DISCID=050b4612
DTITLE=Various Artist - Country Music - Hall Of Fame CD 2
DYEAR=1900
DGENRE=Country
TTITLE0=Eddy Arnold - Texarkana Baby
TTITLE1=Jim Reeves - 'til The End Of The World
TTITLE2=Hank Williams - A Mansion On The Hill
TTITLE3=Eddy Arnold - It Makes No Difference Now
TTITLE4=Jimmie Rodgers - Mississippi Moon
TTITLE5=Sunset Carson - The Prodigal Son
TTITLE6=Eddy Arnold - I Walk Alone
TTITLE7=Roy Rogers - Blue Shadows On The Trail
TTITLE8=Bill Monroe - Kentucky Waltz
TTITLE9=Roy Acuff - Night Trainto Memphis
TTITLE10=Hank Williams - You're Gonna Change
TTITLE11=Jimmie Rodgers - Travellin' Blues
TTITLE12=Eddy Arnold - Anytime
TTITLE13=Jimmie Rodgers - Gamblin' Bar Room Blues
TTITLE14=Eddy Arnold - Don't Rob Another Man's Castle
TTITLE15=Jim Reeves - The Oklahoma Hills
TTITLE16=Hank Williams - I'm So Lonesome I Could Cry
TTITLE17=Eddy Arnold - Molly Darling
EXTD=
EXTT0=
EXTT1=
EXTT2=
EXTT3=
EXTT4=
EXTT5=
EXTT6=
EXTT7=
EXTT8=
EXTT9=
EXTT10=
EXTT11=
EXTT12=
EXTT13=
EXTT14=
EXTT15=
EXTT16=
EXTT17=
PLAYORDER=
